<?xml version="1.0" encoding="UTF-8"?>
<!-- Created with Inkscape (http://www.inkscape.org/) -->
<svg width="410.4" height="394.08" version="1.1" viewBox="0 0 108.58 104.27" xmlns="http://www.w3.org/2000/svg" xmlns:cc="http://creativecommons.org/ns#" xmlns:dc="http://purl.org/dc/elements/1.1/" xmlns:rdf="http://www.w3.org/1999/02/22-rdf-syntax-ns#">
 <metadata>
  <rdf:RDF>
   <cc:Work rdf:about="">
    <dc:format>image/svg+xml</dc:format>
    <dc:type rdf:resource="http://purl.org/dc/dcmitype/StillImage"/>
    <dc:title/>
   </cc:Work>
  </rdf:RDF>
 </metadata>
 <g transform="translate(-1.1045e-6 -11.495)">
  <g transform="translate(-158.58 -32.544)">
   <path transform="matrix(.26458 0 0 .26458 0 11.25)" d="m804.98 140.05a188.98 188.98 0 0 0-188.98 188.98 188.98 188.98 0 0 0 188.98 188.98 188.98 188.98 0 0 0 188.98-188.98 188.98 188.98 0 0 0-10.994-62.846 30.406 30.406 0 0 1-15.344-7.502 30.406 30.406 0 0 1-9.8535-21.797 53.387 53.387 0 0 1-58.078-9.2441 53.387 53.387 0 0 1-13.988-57.869 30.406 30.406 0 0 1-23.688-7.7871 30.406 30.406 0 0 1-9.0684-15.625 188.98 188.98 0 0 0-47.963-6.3066zm0 94.488a94.488 94.488 0 0 1 94.488 94.488 94.488 94.488 0 0 1-94.488 94.488 94.488 94.488 0 0 1-94.488-94.488 94.488 94.488 0 0 1 94.488-94.488z" fill="#f95" opacity=".478" stroke-width="2.0541"/>
   <path transform="matrix(.26458 0 0 .26458 0 11.25)" d="m805.86 123.93c-4.73-0.0359-9.478 0.10707-14.234 0.43359-105.69 4.5581-191.53 104.2-192.28 206.76a7.5007 7.5007 0 0 0 0.0117 0.41992c0.52411 10.739 2.28 20.569 5.9824 28.721 3.7025 8.152 10.002 15.091 18.875 16.988 5.8878 1.2591 11.56-0.61917 15.768-3.332 4.208-2.7129 7.512-6.1919 10.598-9.5547 6.1712-6.7256 11.928-12.356 14.631-12.953a7.5007 7.5007 0 0 0 0.5-0.1289c8.2634-2.433 10.451-0.45248 14.842 3.0293 2.1955 1.7409 4.5596 4.0488 7.8301 6.166 3.2705 2.1172 7.9195 3.936 13.047 3.4121 9.4866-0.96926 16.074-7.6122 19.316-14.199 3.1707-6.4418 4.0962-13.052 4.1387-18.156 8e-3 -0.14253 8e-3 -0.24336 0.0117-0.30273a7.5007 7.5007 0 0 0 2e-3 -0.0371c2e-3 -0.0613 4e-3 -0.15623 8e-3 -0.25 2e-3 -0.0537 2e-3 -0.10818 6e-3 -0.16211l2e-3 -0.0508c4.6e-4 -0.0132 1e-3 -0.0261 2e-3 -0.0391 1e-3 -0.0242 3e-3 -0.064 4e-3 -0.0762a7.5007 7.5007 0 0 0 0.0117-0.29297c0.90437-45.061 42.4-86.355 87.734-81.963a7.5007 7.5007 0 0 0 0.18359 0.0156c40.675 2.9335 69.502 43.404 71.035 83.09a7.5007 7.5007 0 0 0 2e-3 0.0508c0.60529 13.367 6.9387 23.299 15.885 27.195 8.9461 3.8958 19.148 1.8661 26.738-4.0742 5.0755-3.9723 9.138-8.6537 12.68-12.494 3.5416-3.8404 6.7644-6.6971 8.0898-7.3262 1.2136-0.57594 5.9965-0.81726 10.893 0.64453 4.896 1.4618 9.8729 4.3768 11.768 6.2715 3.0536 3.0536 8.2838 8.7627 16.783 10.217 4.2497 0.72706 9.5992-0.32204 13.623-3.6484 4.0237-3.3263 6.7875-8.2152 8.9258-14.812a7.5007 7.5007 0 0 0 0.3613-2.0644c0.7172-21.737-2.1222-43.563-8.9805-64.381a30.406 35.389 42.479 0 1-42.312 1.7637 30.406 35.389 42.479 0 1-8.8086-22.936 53.387 62.137 42.479 0 1-61.666-5.3281 53.387 62.137 42.479 0 1-10.311-61.885 30.406 35.389 42.479 0 1-24.82-6.5488 30.406 35.389 42.479 0 1-1.8184-42.479c-14.663-3.6148-29.769-5.5833-45.053-5.6992z" color="#000000" color-rendering="auto" dominant-baseline="auto" image-rendering="auto" shape-rendering="auto" solid-color="#000000" style="font-feature-settings:normal;font-variant-alternates:normal;font-variant-caps:normal;font-variant-ligatures:normal;font-variant-numeric:normal;font-variant-position:normal;isolation:auto;mix-blend-mode:normal;shape-padding:0;text-decoration-color:#000000;text-decoration-line:none;text-decoration-style:solid;text-indent:0;text-orientation:mixed;text-transform:none;white-space:normal"/>
   <g stroke-width="2.0541">
    <path transform="matrix(.26458 0 0 .26458 0 11.25)" d="m805.8 131.43c-4.5618-0.0346-9.1387 0.10196-13.721 0.41797-101.17 4.281-184.51 100.92-185.24 199.33 0.98661 20.215 6.8912 36.164 18.936 38.74 14.547 3.111 24.238-22.831 37.809-25.828 20.919-6.159 24.377 13.637 37.074 12.34 13.306-1.3595 16.722-17.026 16.727-25.252 4e-3 -0.0839 6e-3 -0.16844 0.01-0.25195 3e-3 -0.0835 6e-3 -0.16656 8e-3 -0.25 3e-3 -0.0835 7e-3 -0.16631 0.01-0.25 4e-3 -0.0837 9e-3 -0.16771 0.0137-0.25196 0.99334-49.495 45.807-94.136 95.957-89.277 45.247 3.2632 76.324 47.194 77.988 90.281 1.0328 22.807 19.162 26.435 30.508 17.555 8.6173-6.7442 15.426-17.485 22.178-20.689 8.3625-3.9687 24.586 1.7951 31.18 8.3887 5.6051 5.6051 19.414 17.821 26.893-5.2539 0.6453-19.557-1.6962-39.115-7.3633-57.857a30.406 39.447 42.479 0 1-43.982 3.7363 30.406 39.447 42.479 0 1-7.9609-23.863 53.387 69.262 42.479 0 1-64.586-2.1387 53.387 69.262 42.479 0 1-7.3145-65.156 30.406 39.447 42.479 0 1-25.746-5.5391 30.406 39.447 42.479 0 1 0.0254-44.348c-12.88-2.8992-26.081-4.4771-39.402-4.5781z" fill="#483737"/>
    <path transform="matrix(.26458 0 0 .26458 0 11.25)" d="m951.34 334.37c-1.9594-0.0504-3.4577 0.15343-4.0644 0.4414-1.3254 0.62906-4.5482 3.4858-8.0898 7.3262-3.5416 3.8404-7.6042 8.5218-12.68 12.494-0.0128 0.01-0.0262 0.0193-0.0391 0.0293-2.6192 13.587-7.8952 26.757-16.254 38.812-41.235 70.586-158.2 79.318-204.26 9.1016-9.7842-13.026-16.334-27.993-19.855-43.703-2.1546-1.6277-3.9002-3.2576-5.5508-4.5664-4.391-3.4818-6.5784-5.4622-14.842-3.0293a7.5007 7.5007 0 0 1-0.5 0.1289c-2.7026 0.5969-8.4597 6.2276-14.631 12.953-0.92266 1.0055-1.8696 2.0188-2.8496 3.0215 1.87 6.937 4.2992 13.798 7.3672 20.527 31.661 83.579 140.74 129.73 220.62 85.535 51.323-24.452 85.826-78.653 90.264-134.55-2.252-1.3129-5.0352-2.6103-7.8125-3.4395-2.448-0.73089-4.8687-1.0355-6.8281-1.0859z" fill="#fff" opacity=".795"/>
    <path transform="matrix(.26458 0 0 .26458 0 11.25)" d="m807.35 167.58c-3.9353-0.0252-7.885 0.11164-11.842 0.41602-85.217 2.4478-154.97 85.507-152.39 168.1 10.966-8.8008 26.567-12.35 39.912-8.4512 1.0163-48.238 27.925-96.191 75.658-112.15 15.969-6.4912 33.255-9.6018 50.477-9.4707 17.187-0.26007 33.414 3.8472 48.045 11.168a53.387 75.449 42.479 0 1 7.9609-25.018 30.406 42.971 42.479 0 1-26.549-4.6621 30.406 42.971 42.479 0 1-7.582-17.832c-7.794-1.3301-15.711-2.0524-23.689-2.1035zm129.66 91.965a53.387 75.449 42.479 0 1-25.998 10.074c8.6528 15.329 14.419 32.281 16.533 49.512 9.1553-7.3753 19.667-12.334 32.199-8.7168 1.91 0.0977 3.9396 0.67667 5.9922 1.4863-0.72971-7.2791-2.0125-14.51-3.8692-21.631a30.406 42.971 42.479 0 1-17.635-6.0566 30.406 42.971 42.479 0 1-7.2227-24.668z" fill="#fff" opacity=".795"/>
   </g>
  </g>
  <ellipse cx="309.91" cy="87.367" rx="9.6351" ry="11.319" fill="none" opacity=".795" style="paint-order:normal"/>
 </g>
</svg>
