<svg width="480" height="291" fill="none" xmlns="http://www.w3.org/2000/svg"><rect x="41.44" y="249.002" width="400.32" height="28.288" rx="14.144" fill="#000" opacity=".05" filter="url(#filter0_f)"/><rect x="52" y="249.159" width="382.4" height="19.971" rx="9.986" fill="#000" opacity=".5" filter="url(#filter1_f)"/><rect x="38.4" width="404" height="263.621" rx="12.48" fill="#F5F5F5" filter="url(#filter2_di)"/><path fill="#F5F5F5" d="M0 261.224h480v3.195H0z"/><path d="M197.6 261.224h85.6a2.397 2.397 0 0 1-2.397 2.397h-80.806a2.397 2.397 0 0 1-2.397-2.397z" fill="url(#paint0_linear)" fill-opacity=".5"/><path fill-rule="evenodd" clip-rule="evenodd" d="M76.8 270.012c-65.26 0-76.8-5.592-76.8-5.592l240.8-.799 239.2.799s-11.509 5.592-76.8 5.592H76.8z" fill="url(#paint1_linear)"/><path fill="#D1D5FF" d="M58 18h364.8v227.672H58z"/><mask id="a" maskUnits="userSpaceOnUse" x="58" y="18" width="365" height="228"><path fill="#fff" d="M58 18h364.8v227.672H58z"/></mask><defs><filter id="filter0_f" x="28.392" y="235.955" width="426.416" height="54.384" filterUnits="userSpaceOnUse" color-interpolation-filters="sRGB"><feFlood flood-opacity="0" result="BackgroundImageFix"/><feBlend in="SourceGraphic" in2="BackgroundImageFix" result="shape"/><feGaussianBlur stdDeviation="6.524" result="effect1_foregroundBlur"/></filter><filter id="filter1_f" x="30.254" y="227.412" width="425.893" height="63.464" filterUnits="userSpaceOnUse" color-interpolation-filters="sRGB"><feFlood flood-opacity="0" result="BackgroundImageFix"/><feBlend in="SourceGraphic" in2="BackgroundImageFix" result="shape"/><feGaussianBlur stdDeviation="10.873" result="effect1_foregroundBlur"/></filter><filter id="filter2_di" x="38.4" y="0" width="404" height="264.621" filterUnits="userSpaceOnUse" color-interpolation-filters="sRGB"><feFlood flood-opacity="0" result="BackgroundImageFix"/><feColorMatrix in="SourceAlpha" values="0 0 0 0 0 0 0 0 0 0 0 0 0 0 0 0 0 0 127 0"/><feOffset dy="1"/><feColorMatrix values="0 0 0 0 0 0 0 0 0 0 0 0 0 0 0 0 0 0 0.2 0"/><feBlend in2="BackgroundImageFix" result="effect1_dropShadow"/><feBlend in="SourceGraphic" in2="effect1_dropShadow" result="shape"/><feColorMatrix in="SourceAlpha" values="0 0 0 0 0 0 0 0 0 0 0 0 0 0 0 0 0 0 127 0" result="hardAlpha"/><feOffset dy="1"/><feGaussianBlur stdDeviation=".5"/><feComposite in2="hardAlpha" operator="arithmetic" k2="-1" k3="1"/><feColorMatrix values="0 0 0 0 1 0 0 0 0 1 0 0 0 0 1 0 0 0 1 0"/><feBlend in2="shape" result="effect2_innerShadow"/></filter><linearGradient id="paint0_linear" x1="197.6" y1="263.621" x2="283.2" y2="263.621" gradientUnits="userSpaceOnUse"><stop stop-color="#BCBDBF"/><stop offset=".098" stop-color="#D8D8DF"/><stop offset=".888" stop-color="#D8D8DF"/><stop offset="1" stop-color="#ADAABD"/></linearGradient><linearGradient id="paint1_linear" y1="263.621" x2="0" y2="270.012" gradientUnits="userSpaceOnUse"><stop stop-color="#fff"/><stop offset="1" stop-color="#CDCBD5"/></linearGradient></defs></svg>