<svg xmlns="http://www.w3.org/2000/svg" width="573.162" height="392.094"><g fill="#fcfcfc"><path d="M.062 362.476v-29.614h220.251c238.971 0 225.37.216 237.02-3.758 19.914-6.792 35.273-22.943 41.688-43.836 1.807-5.886 1.947-7.216 1.93-18.333-.016-10.97-.178-12.512-1.912-18.189-3.56-11.656-8.905-20.413-17.732-29.052-9.922-9.711-23.458-16.275-37.014-17.948-3.286-.406-18.437-.738-33.668-.738H382.93v100.125h-59.228V0l74.212.244c72.702.239 74.333.274 80.205 1.73 23.884 5.927 42.753 18.728 55.54 37.679 24.332 36.058 19.723 83.432-11.105 114.162-3.723 3.712-7.79 7.351-9.039 8.089-1.248.737-2.188 1.552-2.087 1.81.1.257 3.515 2.705 7.587 5.44 17.95 12.059 31.155 26.908 40.863 45.95 31.16 61.12 5.587 135.527-56.728 165.058-13.93 6.601-27.285 10.02-43.79 11.21-6.236.45-91.495.708-234.549.712l-224.75.01zm458.903-225.758c7.09-2.59 12.15-5.777 17.403-10.959 5.391-5.32 8.756-10.697 11.377-18.183 1.754-5.011 1.972-6.61 1.972-14.448 0-7.839-.218-9.437-1.972-14.448-2.621-7.486-5.986-12.863-11.377-18.183-5.252-5.182-10.313-8.37-17.403-10.959l-5.171-1.889-35.431-.207-35.432-.207v91.786l35.432-.207 35.43-.207z"/><path d="M.207 296.192l.207-4.94 114.932-145.593L230.277.067l28.38-.006 28.38-.006v301.078h-58.509l-.183-34.021-.183-34.021-54.351-.181-54.351-.18-26.99 34.201-26.99 34.202H0zm228.307-162.52c0-29.158-.187-37.013-.881-36.993-.816.024-57.631 71.51-58.207 73.236-.184.554 8.196.774 29.415.774h29.673z"/></g></svg>